<svg xmlns="http://www.w3.org/2000/svg" xmlns:xlink="http://www.w3.org/1999/xlink" style="display: block;" version="1.1" viewBox="340.23 322.3 343.55 123.35">   <g id="logo-center" transform="translate(0 0)">     <g style="font-style:normal;font-weight:normal;font-size:72px;line-height:1;font-family:'Brandmark Sans 39';font-variant-ligatures:normal;text-align:center;text-anchor:middle" transform="translate(0 0)">       <path id="path353359" style="font-style:normal;font-weight:normal;font-size:72px;line-height:1;font-family:'Brandmark Sans 39';font-variant-ligatures:normal;text-align:center;text-anchor:middle" d="m 443.2715,0 h 6.336 v -21.456 h 5.76 V 0 h 6.336 v -48.96 h -6.336 v 21.384 h -5.76 V -48.96 h -6.336 z" stroke-width="0" stroke-linejoin="miter" stroke-miterlimit="2" fill="#8d6f64" stroke="#8d6f64" transform="translate(0 346.33000000000004) translate(340.2490625000002 -23.080000000000005) scale(2.5) translate(-443.2715 48.96)"></path>       <path id="path353361" style="font-style:normal;font-weight:normal;font-size:72px;line-height:1;font-family:'Brandmark Sans 39';font-variant-ligatures:normal;text-align:center;text-anchor:middle" d="m 474.79175,-48.96 h -9.864 v 22.32 h 5.76 v -6.048 h 2.736 c 2.376,0 3.6,1.44 3.6,4.032 v 2.016 h 6.336 v -1.8 c 0,-2.736 -2.088,-5.328 -5.256,-6.408 v -0.864 c 3.024,-0.936 5.112,-3.096 5.112,-5.904 v -0.504 c 0,-3.96 -2.52,-6.84 -8.424,-6.84 z m -9.864,44.568 c 0,2.52 1.872,4.392 4.392,4.392 h 14.04 v -5.4 h -11.592 c -0.576,0 -1.08,-0.504 -1.08,-1.08 v -2.376 h 11.232 v -4.68 h -11.232 v -3.384 h 12.672 v -5.4 h -18.432 z m 5.76,-33.408 v -5.76 h 4.032 c 2.016,0 3.456,1.296 3.456,2.88 0,1.584 -1.44,2.88 -3.456,2.88 z" stroke-width="0" stroke-linejoin="miter" stroke-miterlimit="2" fill="#8d6f64" stroke="#8d6f64" transform="translate(0 346.33000000000004) translate(394.38968750000015 -23.080000000000005) scale(2.5) translate(-464.92775 48.96)"></path>       <path id="path353363" style="font-style:normal;font-weight:normal;font-size:72px;line-height:1;font-family:'Brandmark Sans 39';font-variant-ligatures:normal;text-align:center;text-anchor:middle" d="m 486.584,0 h 6.336 V -19.656 L 491.552,-36 l -0.288,-1.656 h 0.72 L 498.68,0 h 5.04 l 6.696,-37.656 h 0.72 L 510.848,-36 509.48,-19.656 V 0 h 6.336 v -48.96 h -5.544 c -2.088,0 -3.744,1.368 -4.104,3.456 l -3.456,20.304 -1.512,12.6 -1.512,-12.528 -3.456,-20.376 c -0.36,-2.088 -2.016,-3.456 -4.104,-3.456 h -5.544 z" stroke-width="0" stroke-linejoin="miter" stroke-miterlimit="2" fill="#8d6f64" stroke="#8d6f64" transform="translate(0 346.33000000000004) translate(448.5303125000001 -23.080000000000005) scale(2.5) translate(-486.584 48.96)"></path>       <path id="path353365" style="font-style:normal;font-weight:normal;font-size:72px;line-height:1;font-family:'Brandmark Sans 39';font-variant-ligatures:normal;text-align:center;text-anchor:middle" d="m 518.92775,-40.104 v 21.528 c 0,5.112 4.104,9.216 9.216,9.216 5.112,0 9.216,-4.104 9.216,-9.216 v -21.528 c 0,-5.112 -4.104,-9.216 -9.216,-9.216 -5.112,0 -9.216,4.104 -9.216,9.216 z m 0,40.104 h 18.432 v -6.12 h -18.432 z m 6.336,-18.576 v -21.528 c 0,-1.656 1.224,-3.024 2.88,-3.024 1.656,0 2.88,1.368 2.88,3.024 v 21.528 c 0,1.656 -1.224,3.024 -2.88,3.024 -1.656,0 -2.88,-1.368 -2.88,-3.024 z" stroke-width="0" stroke-linejoin="miter" stroke-miterlimit="2" fill="#8d6f64" stroke="#8d6f64" transform="translate(0 346.33000000000004) translate(529.3896874999998 -23.979999999999997) scale(2.5) translate(-518.92775 49.32)"></path>       <path id="path353367" style="font-style:normal;font-weight:normal;font-size:72px;line-height:1;font-family:'Brandmark Sans 39';font-variant-ligatures:normal;text-align:center;text-anchor:middle" d="m 554.696,-18.864 0.216,1.08 h -0.72 L 546.92,-48.96 h -6.336 V 0 h 6.336 v -15.192 l -2.016,-14.904 -0.216,-1.08 h 0.648 L 552.68,0 h 6.336 v -48.96 h -6.336 v 15.192 z" stroke-width="0" stroke-linejoin="miter" stroke-miterlimit="2" fill="#8d6f64" stroke="#8d6f64" transform="translate(0 346.33000000000004) translate(583.5303124999998 -23.080000000000005) scale(2.5) translate(-540.584 48.96)"></path>       <path id="path353369" style="font-style:normal;font-weight:normal;font-size:72px;line-height:1;font-family:'Brandmark Sans 39';font-variant-ligatures:normal;text-align:center;text-anchor:middle" d="m 566.63225,-26.568 h 14.04 v -5.4 h -11.592 c -0.576,0 -1.08,-0.504 -1.08,-1.08 v -2.376 h 11.232 v -4.68 h -11.232 v -3.384 h 12.672 v -5.4 h -18.432 v 17.928 c 0,2.52 1.872,4.392 4.392,4.392 z M 562.24025,0 h 5.76 v -8.928 l -1.44,-4.824 -0.216,-0.504 h 0.648 L 574.33625,0 h 6.336 v -22.32 h -5.76 v 8.928 l 1.44,4.824 0.216,0.504 h -0.72 l -7.272,-14.256 h -6.336 z" stroke-width="0" stroke-linejoin="miter" stroke-miterlimit="2" fill="#8d6f64" stroke="#8d6f64" transform="translate(0 346.33000000000004) translate(637.6709374999998 -22.9) scale(2.5) translate(-562.24025 48.888)"></path>     </g>   </g> </svg>