<svg xmlns="http://www.w3.org/2000/svg" xmlns:xlink="http://www.w3.org/1999/xlink" style="display: block;" version="1.1" viewBox="340.23 323.23 100.27 122.42">
  <g id="logo-center" transform="translate(0 0)">
    <g style="font-style:normal;font-weight:normal;font-size:72px;line-height:1;font-family:'Brandmark Sans 39';font-variant-ligatures:normal;text-align:center;text-anchor:middle" transform="translate(0 0)">
      <path id="path353359" style="font-style:normal;font-weight:normal;font-size:72px;line-height:1;font-family:'Brandmark Sans 39';font-variant-ligatures:normal;text-align:center;text-anchor:middle" d="m 443.2715,0 h 6.336 v -21.456 h 5.76 V 0 h 6.336 v -48.96 h -6.336 v 21.384 h -5.76 V -48.96 h -6.336 z" stroke-width="0" stroke-linejoin="miter" stroke-miterlimit="2" fill="#8d6f64" stroke="#8d6f64" transform="translate(0 346.33000000000004) translate(340.2490625000002 -23.080000000000005) scale(2.5) translate(-443.2715 48.96)"></path>
      <path id="path353361" style="font-style:normal;font-weight:normal;font-size:72px;line-height:1;font-family:'Brandmark Sans 39';font-variant-ligatures:normal;text-align:center;text-anchor:middle" d="m 474.79175,-48.96 h -9.864 v 22.32 h 5.76 v -6.048 h 2.736 c 2.376,0 3.6,1.44 3.6,4.032 v 2.016 h 6.336 v -1.8 c 0,-2.736 -2.088,-5.328 -5.256,-6.408 v -0.864 c 3.024,-0.936 5.112,-3.096 5.112,-5.904 v -0.504 c 0,-3.96 -2.52,-6.84 -8.424,-6.84 z m -9.864,44.568 c 0,2.52 1.872,4.392 4.392,4.392 h 14.04 v -5.4 h -11.592 c -0.576,0 -1.08,-0.504 -1.08,-1.08 v -2.376 h 11.232 v -4.68 h -11.232 v -3.384 h 12.672 v -5.4 h -18.432 z m 5.76,-33.408 v -5.76 h 4.032 c 2.016,0 3.456,1.296 3.456,2.88 0,1.584 -1.44,2.88 -3.456,2.88 z" stroke-width="0" stroke-linejoin="miter" stroke-miterlimit="2" fill="#8d6f64" stroke="#8d6f64" transform="translate(0 346.33000000000004) translate(394.38968750000015 -23.080000000000005) scale(2.5) translate(-464.92775 48.96)"></path>
    </g>
  </g>
</svg>