<?xml version="1.0" standalone="no"?>
<!DOCTYPE svg PUBLIC "-//W3C//DTD SVG 20010904//EN"
 "http://www.w3.org/TR/2001/REC-SVG-20010904/DTD/svg10.dtd">
<svg version="1.0" xmlns="http://www.w3.org/2000/svg"
 width="976.000000pt" height="976.000000pt" viewBox="0 0 976.000000 976.000000"
 preserveAspectRatio="xMidYMid meet">
<metadata>
Created by potrace 1.14, written by Peter Selinger 2001-2017
</metadata>
<g transform="translate(0.000000,976.000000) scale(0.100000,-0.100000)"
fill="#000000" stroke="none">
<path d="M882 4879 l0 -4879 631 2 632 3 0 2136 0 2135 572 0 c507 0 572 -2
575 -16 2 -8 3 -970 3 -2137 l-1 -2123 632 0 631 0 0 4879 0 4878 -631 -1
-631 -1 -1 -2110 c-1 -1160 -2 -2119 -3 -2130 -1 -20 -8 -20 -563 -19 -310 1
-567 2 -573 3 -7 1 -10 718 -10 2128 l0 2128 -632 1 -631 2 0 -4879z"/>
<path d="M5203 7537 l2 -2222 573 -3 572 -2 0 599 c0 470 3 600 13 603 17 6
614 1 662 -5 168 -24 286 -78 385 -179 50 -49 101 -123 93 -132 -4 -3 -2 -6 4
-6 18 0 79 -175 88 -253 2 -18 7 -45 10 -62 4 -16 8 -150 8 -297 l2 -268 632
0 631 0 -3 248 c-3 231 -11 317 -37 402 -60 191 -134 332 -250 473 -71 86
-229 237 -247 237 -5 0 -11 4 -13 8 -4 11 -136 102 -147 102 -5 0 -11 4 -13 8
-4 11 -221 116 -285 139 l-53 18 0 86 0 86 93 33 c101 37 321 144 351 172 11
10 25 18 32 18 7 0 14 3 16 8 2 4 30 27 62 52 108 81 254 240 296 320 7 14 16
27 20 30 12 9 77 154 98 220 39 120 47 190 46 400 0 96 -3 198 -7 225 -4 28
-9 67 -12 89 -3 21 -7 41 -10 45 -2 4 -6 21 -9 38 -10 51 -55 183 -88 252 -65
136 -184 286 -298 377 -30 24 -60 48 -67 54 -54 44 -285 166 -333 175 -8 2
-16 4 -17 5 -2 2 -6 3 -10 5 -5 1 -15 4 -23 8 -21 8 -89 29 -103 31 -7 1 -21
5 -32 9 -11 3 -32 9 -47 12 -43 8 -76 14 -105 21 -16 3 -44 7 -63 10 -19 2
-48 7 -65 9 -83 15 -211 17 -1242 20 l-1111 3 1 -2221z m2062 1138 c205 -22
391 -131 495 -291 22 -33 40 -63 40 -67 0 -3 5 -18 12 -34 28 -68 38 -174 24
-256 -10 -63 -44 -149 -81 -203 -38 -58 -130 -151 -157 -160 -10 -3 -18 -10
-18 -15 0 -6 -4 -8 -9 -5 -5 4 -11 3 -13 -2 -9 -21 -181 -85 -263 -97 -27 -5
-251 -9 -497 -9 l-448 -2 0 571 c0 315 2 574 4 576 6 6 851 0 911 -6z"/>
<path d="M5200 4297 c0 -84 0 -161 0 -172 1 -80 1 -224 -1 -231 -1 -5 0 -13 1
-19 1 -5 1 -57 0 -115 -1 -58 -1 -112 -1 -120 2 -33 2 -218 0 -226 -1 -5 0
-13 1 -19 1 -5 1 -57 0 -115 -1 -58 -1 -112 -1 -120 2 -33 2 -218 0 -226 -1
-5 0 -13 1 -19 1 -5 1 -57 0 -115 -1 -58 -1 -112 -1 -120 2 -33 2 -218 0 -226
-1 -5 0 -13 1 -19 1 -5 1 -57 0 -115 -1 -58 -1 -112 -1 -120 2 -33 2 -218 0
-226 -1 -5 0 -13 1 -19 1 -5 1 -57 0 -115 -1 -58 -1 -112 -1 -120 2 -33 2
-218 0 -226 -1 -5 0 -13 1 -19 1 -5 1 -57 0 -115 -1 -58 -1 -112 -1 -120 2
-33 2 -218 0 -226 -1 -5 -1 -11 0 -14 1 -3 3 -63 5 -135 3 -71 7 -140 10 -153
37 -158 76 -252 144 -350 113 -161 266 -268 472 -331 l85 -26 1481 -3 1481 -3
-1 538 -1 538 -1165 1 c-641 0 -1180 4 -1199 8 -39 9 -49 16 -101 67 -56 55
-61 89 -58 369 l3 245 1105 1 c608 1 1111 2 1118 3 9 1 12 101 12 465 l0 464
-1117 0 -1118 0 -3 336 c-2 315 -1 336 15 337 10 0 579 0 1264 1 l1246 0 0
538 0 539 -1838 0 -1838 0 -1 -152z"/>
</g>
</svg>
